<svg xmlns="http://www.w3.org/2000/svg" viewBox="0 0 24.000 23.000" width="24.0" height="23.0">
<path fill="#c6af7b" d="M1.734 0.351 L5.372 0.351 C5.824 0.351 6.190 0.717 6.190 1.169 L6.190 21.709 C6.190 22.161 5.824 22.527 5.372 22.527 L1.734 22.527 C1.282 22.527 0.916 22.161 0.916 21.709 L0.916 1.169 C0.916 0.717 1.282 0.351 1.734 0.351"/>
<path fill="#727272" d="M9.859 0.351 L13.497 0.351 C13.950 0.351 14.315 0.717 14.315 1.169 L14.315 21.709 C14.315 22.161 13.950 22.527 13.497 22.527 L9.859 22.527 C9.407 22.527 9.042 22.161 9.042 21.709 L9.042 1.169 C9.042 0.717 9.407 0.351 9.859 0.351"/>
<path fill="#727272" d="M17.985 8.547 L21.623 8.547 C22.074 8.547 22.441 8.914 22.441 9.365 L22.441 21.709 C22.441 22.161 22.074 22.527 21.623 22.527 L17.985 22.527 C17.533 22.527 17.167 22.161 17.167 21.709 L17.167 9.365 C17.167 8.914 17.533 8.547 17.985 8.547"/>
<path fill="#c29284" d="M19.226 6.972 L16.654 4.400 C16.333 4.080 16.333 3.562 16.654 3.243 L19.226 0.671 C19.546 0.351 20.064 0.351 20.383 0.671 L22.955 3.243 C23.275 3.562 23.275 4.080 22.955 4.400 L20.383 6.972 C20.064 7.292 19.546 7.292 19.226 6.972"/>
</svg>